<?xml version="1.0" encoding="UTF-8"?>
<svg id="Capa_2" data-name="Capa 2" xmlns="http://www.w3.org/2000/svg" viewBox="0 0 1050.81 288">
  <defs>
    <style>
      .cls-1 {
        fill: #383838;
      }
    </style>
  </defs>
  <g id="Capa_2-2" data-name="Capa 2">
    <g>
      <g>
        <path class="cls-1" d="M404.7,74.16c-7.6-1.26-15.05-1.35-22.57-1.14v-.37h-23.95v143.17h23.95v-47.88c2.79.15,5.7.27,8.72.27,11.28,0,23.77-1.57,34.69-8.55,17.66-11.28,25.5-34.12,18.64-54.32-5.47-16.11-20.6-28.05-39.49-31.17ZM412.65,139.47c-7.71,4.92-18.35,5.14-30.52,4.47v-46.96c6.51-.19,12.81-.15,18.66.81,7.96,1.31,17.58,6.01,20.71,15.24,3.36,9.9-.36,21.02-8.85,26.44Z"/>
        <path class="cls-1" d="M514.27,69.22c-27.27,0-49.45,22.18-49.45,49.45s22.18,49.44,49.45,49.44,49.44-22.18,49.44-49.44-22.18-49.45-49.44-49.45ZM514.27,144.16c-14.06,0-25.49-11.44-25.49-25.49s11.44-25.49,25.49-25.49,25.49,11.44,25.49,25.49-11.44,25.49-25.49,25.49Z"/>
        <polygon class="cls-1" points="667.42 191.73 667.42 72.63 643.47 72.63 643.47 191.73 605.88 191.73 605.88 72.63 581.93 72.63 581.93 215.68 643.47 215.68 685.24 215.68 746.77 215.68 746.77 191.73 685.24 191.73 667.42 191.73"/>
        <path class="cls-1" d="M755.17,127.62s-.11,4.89-2.26,9.24c-2.16,4.37-5.4,6.24-10.84,6.24s-8.68-1.87-10.84-6.24c-2.14-4.33-2.26-9.14-2.26-9.14v-54.72h-23.95v54.72c0,15.81,9.87,39.33,37.05,39.33s37.06-23.52,37.06-39.33v-54.72h-23.95v54.62Z"/>
        <polygon class="cls-1" points="907.46 72.49 879.84 72.49 855.99 113.98 832.14 72.49 804.51 72.49 842.17 138.01 797.32 216.04 824.94 216.04 855.99 162.03 887.03 216.04 914.66 216.04 869.8 138.01 907.46 72.49"/>
        <rect class="cls-1" x="932.64" y="75.22" width="23.95" height="93.56"/>
        <path class="cls-1" d="M1024.51,75.79l.19-.68h-23.83l.19.68-26.3,93.29h23.45l3.05-10.81h23.06l3.05,10.81h23.45l-26.3-93.29ZM1007.62,135.69l5.17-18.33,5.17,18.33h-10.33Z"/>
      </g>
      <g>
        <path class="cls-1" d="M101.59,109.08c3.47,13.88,9.14,15.49,18.6,23.75,14.17,12.38,32,26.7,44.97,39.74,19.76,19.86-2.91,51.84-12.58,71.32-5.38,10.83-10.61,21.72-15.83,32.64l6.34,11.46c10.92-21.68,25.18-42.07,35.16-64.24,8.17-18.15,12.8-38.29,1.57-56.34-15.13-13.41-29.88-27.18-44.93-40.64-13.42-12-22.39-12.94-20.74-34.55,1.18-15.39,16.65-41.82,24.05-56.34,4.05-7.95,8.44-15.8,12.75-23.62L145.23.17c-.39-.36-1.19-.12-1.79.54-2.16,2.38-6.54,11.15-8.56,14.59-14.32,24.39-40.43,65.26-33.29,93.78Z"/>
        <path class="cls-1" d="M120.98,96.5c-1.97,3.37,1.42,11.98,4.81,14.28,26.86-28.5,65.06-39.02,101.14-50.96l.95,1.77-8.31,39.67,12.96,5.21,13.84-65.69c-.95-.83-9.17,1.82-11.03,2.36-31.41,9.1-69.84,20.57-96.93,38.77-3.58,2.4-15.61,11.47-17.42,14.58Z"/>
        <path class="cls-1" d="M92.96,166.99c1.96.2,13.35-3.04,13.37-4.75-28.53-27.25-36.96-66.5-46.66-103.29l38.48,11.32,1.38-.62,4.23-12.43-63.1-17.28c11.29,38.07,17.13,78.57,39.56,112.13,1.92,2.88,9.88,14.64,12.74,14.93Z"/>
        <path class="cls-1" d="M195.86,122c-3.35-1.93-11.25.12-14.27,2.24-1.51,1.06-.51.82-.07,1.71,1.58,3.16,4.8,5.11,6.92,7.79,21.82,27.54,30.04,61.72,38.93,95.05l-39.21-10.86-4.85,11.65,62.19,19.53c-9.53-38.06-17.49-83.08-40.24-115.77-1.58-2.27-7.53-10.26-9.4-11.34Z"/>
        <path class="cls-1" d="M54.49,182.55l-12.97,65.69c19.86-5.7,39.84-11.8,59.22-19,16.44-6.11,32.68-12.95,47.37-22.65,2.88-1.91,15.85-11.12,17.06-13.19,2.21-3.78-1.04-12.57-4.8-15.16-26.29,28.61-65.47,38.85-101.12,50.99l7.92-41.12-12.68-5.57Z"/>
        <path class="cls-1" d="M173.18,105.46c-5.23,2.49-19.2,16.43-22.74,21.34-.66.91-1.83,2.17-1.61,3.33l8.94,9.18c3.67-3.38,6.95-7.19,10.44-10.72,3.95-3.98,6.54-8.29,11.88-11.02,12.79-6.55,28.54.11,40.65,5.46,18.23,8.06,36,19.52,54.14,28.04,1.95.67,12.12-6.28,12.09-6.99-17.85-10.31-35.65-21.47-54.26-30.44-19.05-9.18-38.59-18.16-59.55-8.19Z"/>
        <path class="cls-1" d="M4.77,146.26c18.81,11.59,63.44,38.82,83.87,40.6,19.67,1.71,27.3-4.65,39.65-17.81,3.26-3.47,6.67-6.87,10.02-10.26l-10.08-8.95c-8.06,4.9-11.81,14.83-19.89,19.6-13.36,7.89-27.39,1.82-40.35-3.42l-55.67-29.97c-2.19-.68-11.79,5.01-12.3,6.34-.45,1.18,3.7,3.25,4.74,3.89Z"/>
        <polygon class="cls-1" points="163.46 60.62 176.33 56.31 154.76 18.32 147.99 32.43 163.46 60.62"/>
        <polygon class="cls-1" points="138.86 256.9 138.77 255.22 122.78 228.73 109.8 232.69 131.84 269.83 138.86 256.9"/>
        <polygon class="cls-1" points="254.15 148.42 229.22 163.66 232.55 177.36 268.83 155.32 254.15 148.42"/>
        <path class="cls-1" d="M33.47,137.81l24.1-14.9-3.09-12.11c-2.47-.11-4.55,1.36-6.62,2.45-9.94,5.25-19.22,12.04-29.13,17.36l-.54,1.79c5.02.15,10.61,7.31,15.29,5.41Z"/>
      </g>
    </g>
  </g>
</svg>